name C:\Users\tom_v\My Drive\PostDoc\MusculoskeletalSpecialization\ResultsSprinting\Case_1\motion.mot
datacolumns 32
datarows 17
range 0.00000000 0.18865006
endheader 
time	pelvis_tilt	pelvis_list	pelvis_rotation	pelvis_tx	pelvis_ty	pelvis_tz	hip_flexion_l	hip_adduction_l	hip_rotation_l	hip_flexion_r	hip_adduction_r	hip_rotation_r	knee_angle_l	knee_angle_r	ankle_angle_l	ankle_angle_r	subtalar_angle_l	subtalar_angle_r	mtp_angle_l	mtp_angle_r	lumbar_extension	lumbar_bending	lumbar_rotation	arm_flex_l	arm_add_l	arm_rot_l	arm_flex_r	arm_add_r	arm_rot_r	elbow_flex_l	elbow_flex_r	
          0.00000000	         -7.42068223	         -5.24661043	         10.55339446	          0.00000000	          0.95142673	         -0.00685200	         12.23612519	         -7.64008579	          2.05232327	         27.99538657	          3.57222784	         -9.67009337	        -63.35174311	         -6.25350769	         -8.03665344	         -6.77706153	          3.03905096	        -16.30790572	          1.85783742	         -3.21798610	        -14.75776602	         10.63096426	         -8.41780121	         35.24847206	        -24.07287671	        -12.35605141	        -14.68491447	         -0.84279922	         -2.63320472	          6.39842944	          3.60110427	
          0.01179063	         -8.66575376	         -3.94533394	          7.11693683	          0.09587234	          0.94449151	         -0.00980160	         16.25890179	         -5.51663238	         -0.46345888	         24.23209820	          3.52500397	         -7.77320658	        -65.96822826	         -3.48094263	         -6.39111472	        -12.35079929	          1.44826636	        -16.17188781	         -1.90516178	         -3.33140286	        -12.83537111	          9.47538472	         -7.48330578	         25.15569497	        -18.01065568	        -10.44214617	         -1.96627513	         -8.24024513	        -11.10676845	          0.79273450	          8.29454038	
          0.02358126	        -10.07103849	         -2.82738548	          2.60165260	          0.19207268	          0.93477846	         -0.01201038	         20.75748589	         -4.35313752	         -3.79508195	         21.29242452	          3.67100815	         -4.19462497	        -68.68548887	         -6.26200030	         -3.01742198	         -6.60105718	          1.10552883	        -12.93689970	         -0.68533364	          4.98761486	        -10.76595341	          8.80047969	         -5.95011310	         11.62366880	        -11.48535421	        -11.03853260	          8.99832241	        -16.47646106	        -13.16628068	          0.76498207	         19.84144289	
          0.03537189	        -10.95823601	         -3.34095659	         -3.15952023	          0.28617902	          0.92871257	         -0.01120123	         25.15658905	         -6.21517939	         -7.37636332	         17.79381164	          6.24678195	          3.73877541	        -71.06668082	         -9.93357125	         -1.42568513	         -0.90736476	         -1.16737613	        -16.11678508	         -2.14549708	         18.55597243	        -10.17479308	          9.96788491	         -2.64123617	         -4.52373044	         -4.41904819	        -13.19654382	         18.74947514	        -25.02383126	         -8.57465650	          7.61981129	         38.06986567	
          0.04716252	        -11.68815940	         -2.52245889	         -7.87482794	          0.37809801	          0.92498649	         -0.01076842	         29.93355598	         -6.41330984	         -9.05980358	         13.96141065	          6.25990712	          8.81912673	        -72.59244367	        -12.87488256	          0.43454008	          2.94809285	         -2.76188702	        -16.66377819	          5.65248102	         26.60340702	        -10.14920117	          9.52227678	          0.26874121	        -22.34932018	          1.11234888	        -10.46888617	         27.57488460	        -34.02069351	         -1.25421024	         19.64932244	         61.18266086	
          0.05895314	        -12.86923928	         -0.08028086	        -11.00718775	          0.46858553	          0.92132118	         -0.01058248	         35.94482067	         -4.75467608	         -9.46315256	         11.39340176	          3.46176485	          9.99996735	        -73.13171191	        -15.73305276	          3.35870524	          4.24208299	         -4.62673664	        -14.55151808	          8.82047077	         36.64291938	         -9.10451763	          7.11431915	          2.65930660	        -39.31695013	          2.97434848	         -4.41543894	         36.34616010	        -40.49487339	          0.64242758	         30.29594559	         83.13880851	
          0.07074377	        -14.22454737	          3.46549810	        -12.99966200	          0.55848955	          0.91857244	         -0.00925723	         42.42140083	         -2.39543147	         -9.83326739	         10.31651526	         -0.89387462	          8.90268823	        -72.33517009	        -19.26257834	          4.99514377	          1.28693546	         -8.06036728	        -12.80814809	          5.43130969	         50.05363657	         -7.12908677	          3.12119372	          5.03001316	        -53.18373570	          2.01769829	         -2.89788116	         44.10015174	        -42.35639815	         -2.78901730	         34.79583261	         99.60023647	
          0.08253440	        -15.32447578	          7.24848798	        -13.74438341	          0.64876327	          0.91683511	         -0.00735172	         48.54631718	          0.06655143	         -9.94121663	          9.83171866	         -5.61979210	          6.81730222	        -70.58356618	        -24.08650503	          7.22754259	         -1.48850197	         -9.63275732	        -11.63221902	          1.27296013	         50.71134760	         -4.90137970	         -1.55636251	          7.20420249	        -63.16168193	         -1.03600867	         -4.74407129	         49.24150016	        -42.59944441	         -7.02652357	         32.47437483	        109.62949281	
          0.09432503	        -16.36871431	         10.20089792	        -13.85673978	          0.73905263	          0.91610923	         -0.00446885	         54.17734515	          1.45796898	         -9.86053599	          9.77897309	         -9.09194873	          5.52064440	        -68.26727186	        -30.35933574	          8.57049108	         -1.11785845	        -11.35057540	        -11.75294231	         -0.60233261	         32.81527475	         -2.74486694	         -5.66845627	          9.58057703	        -68.72445071	         -5.18980644	         -8.24903501	         49.99897362	        -42.43556958	        -11.76058796	         23.46939563	        114.32571600	
          0.10611566	        -16.06716810	         11.03309947	        -13.97101755	          0.82904490	          0.91888230	         -0.00109015	         57.54940949	          1.18960173	         -9.27233356	          8.21358939	        -10.22502740	          5.26463552	        -65.56810069	        -35.28661156	         10.39511740	         -5.51627597	        -12.59787838	        -15.51754803	          1.16448413	         14.91896328	         -2.81405157	         -7.78472087	         11.71810800	        -69.94228647	         -9.14357094	        -11.94295227	         49.99689332	        -42.58370185	        -13.16837379	         10.39077864	        114.99956083	
          0.11790629	        -14.40473052	         11.09234914	        -14.47703547	          0.91874688	          0.92461405	          0.00234186	         58.44437363	          0.40025776	         -9.30375642	          5.55226152	        -10.86421449	          5.88498237	        -61.72306784	        -38.27926152	         12.17769116	        -14.30680361	        -14.65315597	        -17.64473922	          2.65004155	         -3.99499430	         -4.87858915	         -9.33705007	         13.48629304	        -69.99988324	        -12.29677468	        -13.15885153	         49.99648850	        -42.57008585	        -13.09648378	          2.13345543	        114.94818671	
          0.12969692	        -12.09957117	         11.00225976	        -15.26879122	          1.00808049	          0.93142863	          0.00528213	         57.51718679	         -0.31600144	         -9.82449020	          2.76960636	        -11.70493612	          7.31248525	        -56.53549576	        -40.60125219	         14.25393519	        -21.43609136	        -15.95158526	         -7.58839627	          1.23315474	         -2.81455254	         -7.94453743	        -10.86982912	         14.63874308	        -69.99936282	        -13.44798899	        -13.13533284	         49.99494403	        -42.44584622	        -12.74816885	          0.00051907	        114.40296594	
          0.14148755	         -9.86505948	         10.35464239	        -16.04196484	          1.09723466	          0.93791431	          0.00776034	         55.49982589	         -1.09237466	         -9.99953341	          0.28453624	        -11.61589047	          8.67116170	        -50.41987000	        -42.98294498	         15.52550100	        -21.49057485	        -16.92887904	         -6.16377170	          0.33319144	          3.14856574	        -11.15756733	        -11.81063075	         15.01166888	        -69.99884798	        -12.08728673	        -11.58698568	         49.93633514	        -42.29376223	        -12.45040881	          0.79647827	        111.11263033	
          0.15327817	         -8.01788990	          9.26583505	        -16.72389819	          1.18676461	          0.94360344	          0.00900404	         52.81342181	         -1.72969166	         -9.58348905	         -1.39330128	        -11.02941755	          9.65733048	        -43.87186714	        -45.26604925	         16.44300920	        -20.52302856	        -17.59171228	         -7.35318403	         -0.62091627	          5.05215951	        -13.95094566	        -12.09672993	         14.89619609	        -69.92380339	         -8.76133087	         -5.09987655	         49.98872641	        -42.21465078	        -12.42510690	          3.11448373	        102.93712348	
          0.16506880	         -6.58780252	          7.95826378	        -17.22171589	          1.27702465	          0.94847879	          0.00873780	         49.69156746	         -2.07708943	         -8.70183418	         -2.10733482	        -10.43281415	          9.99979351	        -37.44980650	        -47.47529327	         16.41893668	        -19.64587502	        -18.25099041	         -4.36500278	         -0.50382311	          4.59545450	        -16.19148510	        -11.91482303	         14.68177684	        -69.32064075	         -4.74514206	          3.00624392	         49.98684684	        -42.40640653	        -12.93392093	          7.52462194	         89.78757572	
          0.17685943	         -5.82980430	          7.11419687	        -17.46158006	          1.36823530	          0.95189402	          0.00751518	         46.58899309	         -1.84449910	         -8.02388885	         -1.41513013	        -10.31892845	          9.42078045	        -31.31686940	        -49.92858126	         15.74760199	        -18.16007326	        -18.60876113	         -2.62001582	         -1.40126722	          4.14904309	        -17.36482758	        -11.92121793	         14.44058308	        -67.10817216	         -1.03716323	         10.05909258	         49.99553076	        -42.59955233	        -13.19815412	         12.28723220	         72.89852709	
          0.18865006	         -5.50509369	          6.62801775	        -17.20709205	          1.46066599	          0.95426410	          0.00587264	         43.31350847	         -1.03259772	         -7.72499245	          0.17449513	        -10.39826690	          8.22179480	        -25.57198224	        -52.49091970	         13.90868286	        -16.38130005	        -18.96535674	         -1.35234298	         -0.86235120	          2.84321203	        -17.83767436	        -11.96521696	         13.88523859	        -62.21044581	          1.94265360	         15.82096843	         49.91269420	        -41.98719194	        -12.90254815	         15.18717663	         54.88504169	
